<?xml version="1.0" standalone="no"?>
<!DOCTYPE svg PUBLIC "-//W3C//DTD SVG 20010904//EN"
 "http://www.w3.org/TR/2001/REC-SVG-20010904/DTD/svg10.dtd">
<svg version="1.0" xmlns="http://www.w3.org/2000/svg"
 width="389.000000pt" height="389.000000pt" viewBox="0 0 389.000000 389.000000"
 preserveAspectRatio="xMidYMid meet">
<metadata>
Created by potrace 1.14, written by Peter Selinger 2001-2017
</metadata>
<g transform="translate(0.000000,389.000000) scale(0.100000,-0.100000)"
fill="#000000" stroke="none">
<path d="M2565 3604 c-70 -25 -145 -67 -207 -117 l-59 -48 -36 32 c-78 68
-177 87 -258 50 -47 -21 -107 -85 -136 -144 l-21 -42 -106 -18 c-95 -15 -250
-52 -369 -88 -37 -11 -53 -10 -135 9 -128 31 -201 42 -285 42 -130 0 -183 -39
-217 -161 -37 -136 -28 -259 29 -393 l36 -83 -27 -89 c-25 -80 -28 -106 -30
-253 l-2 -164 -91 -28 c-100 -30 -141 -51 -141 -75 0 -27 29 -27 133 0 57 14
108 26 114 26 9 0 44 -73 79 -165 4 -9 -14 -24 -53 -43 -131 -67 -114 -129 19
-67 29 14 60 25 68 25 19 0 120 -113 120 -133 0 -8 -31 -40 -68 -70 -72 -59
-99 -96 -89 -121 11 -28 40 -17 102 35 32 28 73 62 91 75 l32 24 73 -39 c41
-22 93 -45 116 -52 46 -13 48 -23 6 -32 -16 -3 -71 -33 -125 -66 -69 -44 -106
-61 -131 -61 -49 0 -116 -39 -139 -80 -13 -25 -18 -53 -17 -95 1 -33 -2 -82
-6 -110 -4 -30 -3 -67 4 -91 14 -52 83 -132 136 -155 l40 -18 1 -93 c1 -51 8
-116 17 -144 37 -125 117 -228 215 -278 46 -23 63 -26 159 -26 106 0 110 1
207 45 232 105 482 101 743 -11 18 -7 62 -19 97 -25 119 -22 236 19 331 115
103 104 141 214 132 381 -7 139 -50 245 -139 341 l-38 41 62 23 c111 39 242
109 295 155 92 80 137 205 114 310 -22 97 -88 162 -185 179 -76 14 -79 22 -32
87 22 32 47 60 54 63 7 3 43 -1 80 -10 153 -35 172 -35 172 -3 0 26 -31 43
-132 74 -49 14 -88 32 -88 38 1 20 35 155 41 161 3 3 50 10 105 16 54 6 102
15 107 19 4 4 1 15 -6 25 -10 14 -33 19 -109 23 l-96 6 -7 84 c-4 49 -3 89 2
94 9 9 79 23 173 34 61 7 78 19 64 42 -13 20 -91 24 -200 9 l-61 -8 -27 83
c-15 46 -39 102 -52 125 l-24 41 19 46 c43 99 49 233 16 312 -17 42 -70 85
-104 85 -26 0 -29 5 -40 55 -18 81 -84 207 -131 249 -36 32 -46 36 -93 35 -28
0 -70 -7 -92 -15z m133 -99 c28 -23 80 -130 97 -196 6 -25 4 -27 -33 -34 -22
-3 -67 -19 -101 -35 l-61 -29 -56 29 c-37 20 -71 30 -100 30 -42 0 -44 1 -64
48 l-21 47 24 21 c40 34 174 115 215 130 53 19 67 17 100 -11z m-899 -359
c-33 -266 111 -411 333 -337 34 12 76 29 93 39 29 18 30 18 76 -11 64 -39 112
-49 178 -36 47 10 55 9 63 -6 19 -32 74 -83 115 -103 86 -44 163 -35 243 28
l38 30 17 -36 c9 -19 25 -59 35 -89 17 -51 18 -54 1 -69 -10 -9 -22 -16 -28
-16 -6 0 -32 -9 -57 -20 -32 -13 -46 -25 -46 -39 0 -29 25 -33 91 -14 75 21
80 15 77 -82 -3 -61 -5 -70 -23 -73 -54 -8 -65 -13 -65 -32 0 -13 9 -22 28
-26 55 -12 55 -12 48 -54 -3 -22 -13 -58 -22 -80 -15 -38 -18 -40 -59 -40 -27
0 -47 -6 -56 -16 -14 -17 -4 -30 46 -59 16 -10 14 -15 -17 -55 -20 -26 -53
-54 -79 -67 -40 -19 -90 -64 -101 -91 -1 -5 -29 -23 -61 -41 -250 -138 -770
-235 -1085 -202 -64 6 -144 19 -177 27 -67 17 -245 92 -245 103 0 4 13 20 30
34 34 30 36 39 16 56 -11 9 -26 6 -70 -16 l-56 -27 -55 54 c-30 30 -55 58 -55
62 0 4 18 17 40 28 28 14 40 27 40 42 0 19 -4 20 -42 14 -24 -3 -52 -7 -63 -9
-15 -1 -27 11 -47 52 -16 30 -28 67 -28 82 0 26 3 28 55 34 68 9 95 26 76 49
-10 12 -32 16 -87 16 -88 0 -87 -1 -87 150 1 127 23 237 69 344 19 44 34 88
34 98 0 24 -28 34 -52 19 -17 -10 -22 -9 -34 6 -69 92 -54 350 24 401 52 34
221 18 385 -35 83 -28 78 -28 187 12 39 14 362 86 367 81 1 -1 -3 -37 -8 -80z
m1118 -1360 c19 -15 45 -25 81 -28 84 -8 133 -68 133 -161 0 -60 -19 -111 -58
-157 -31 -37 -100 -90 -117 -90 -16 0 -216 307 -216 331 0 4 9 11 20 14 11 3
20 11 20 17 0 24 35 80 54 88 35 14 53 11 83 -14z m-209 -238 c33 -57 81 -134
106 -173 25 -38 42 -73 38 -77 -13 -13 -142 -58 -165 -58 -18 1 -41 32 -117
157 -52 86 -96 161 -98 167 -1 6 37 28 85 48 49 20 89 37 89 37 1 1 29 -45 62
-101z m-518 -85 c0 -57 -42 -137 -90 -172 -55 -39 -158 -59 -225 -42 -106 27
-165 80 -179 162 l-6 36 127 8 c71 4 173 15 228 25 150 26 145 27 145 -17z
m-800 -20 c0 -5 -27 -52 -59 -106 l-58 -98 -46 65 -45 65 23 15 c61 40 185 79
185 59z m-231 -203 l53 -70 -54 -58 c-34 -38 -67 -87 -89 -136 -19 -42 -37
-76 -40 -76 -14 0 -74 47 -93 73 -16 21 -20 41 -19 80 1 29 2 84 3 124 1 65 4
74 27 93 18 14 41 20 74 20 26 0 51 5 54 10 13 21 33 7 84 -60z m420 -91 c57
-24 119 -85 151 -150 27 -52 52 -189 45 -238 -14 -84 -29 -139 -53 -186 -81
-163 -243 -252 -384 -211 -71 20 -114 50 -160 110 -58 78 -82 166 -76 284 8
157 72 281 185 359 95 66 190 76 292 32z m1036 -8 c102 -50 176 -149 210 -278
48 -183 -30 -383 -179 -461 -44 -23 -63 -27 -136 -27 -69 0 -94 5 -133 24 -76
38 -139 101 -181 183 -174 343 104 714 419 559z"/>
<path d="M2483 2366 c-25 -22 -28 -30 -27 -81 2 -78 25 -109 86 -113 38 -3 47
1 61 21 30 46 26 125 -9 166 -32 38 -72 41 -111 7z"/>
<path d="M1313 2195 c-72 -50 -33 -215 51 -215 33 0 73 35 81 70 23 106 -59
196 -132 145z"/>
<path d="M1935 2087 c-60 -28 -83 -79 -60 -134 17 -39 47 -53 116 -53 86 0
139 42 139 110 0 55 -35 83 -108 87 -34 2 -69 -2 -87 -10z m113 -53 c31 -21
28 -50 -8 -69 -37 -19 -79 -19 -101 1 -24 21 -12 53 25 70 41 17 57 17 84 -2z"/>
</g>
</svg>
